# xmcd
#
# Track frame offsets:
#  151
#  22812
#  34885
#  59584
#  96161
#  113826
#  133347
#  150906
#  173179
#  193600
#
# Disc length: 2805 seconds
#
# Revision: 0
# Processed by: cddbd v1.4PL0 Copyright (c) Steve Scherf et al.
# Submitted via: AltoMP3_Maker 3.0
#
DISCID=800af30a
DTITLE=Screamin' Jay Hawkins - Screamin' Jay Hawkins - The Blues Collection
DYEAR=1900
DGENRE=
TTITLE0=live love or die
TTITLE1=because of you
TTITLE2=don't fool with me
TTITLE3=furburger
TTITLE4=cookie time
TTITLE5=the rose
TTITLE6=tear drops
TTITLE7=bushman tucker
TTITLE8=rockin' away
TTITLE9=rock australia rock
EXTD=
EXTT0=
EXTT1=
EXTT2=
EXTT3=
EXTT4=
EXTT5=
EXTT6=
EXTT7=
EXTT8=
EXTT9=
PLAYORDER=
